<svg id="_x33_0" enable-background="new 0 0 64 64" height="512" viewBox="0 0 64 64" width="512" xmlns="http://www.w3.org/2000/svg"><g><g><path d="m43.937 27h2.063v-8h-2.063c-.373 0-.707-.227-.862-.604-.145-.35-.068-.745.196-1.009l1.457-1.459-5.656-5.656-1.459 1.458c-.264.263-.66.339-1.035.185-.351-.144-.578-.478-.578-.852v-2.063h-8v2.063c0 .373-.227.707-.604.862-.351.146-.746.067-1.009-.196l-1.459-1.457-5.656 5.656 1.458 1.459c.264.264.34.659.185 1.035-.144.351-.478.578-.852.578h-1v1h6.612c1.125-2.364 3.536-4 6.325-4 2.787 0 5.19 1.639 6.316 4h.009v.019c.428.906.675 1.914.675 2.981s-.247 2.075-.675 2.981v.019h-.009c-1.126 2.361-3.529 4-6.316 4-2.789 0-5.2-1.636-6.325-4h-6.612v1h1c.373 0 .707.227.862.604.145.35.068.745-.196 1.009l-1.457 1.459 5.656 5.656 1.459-1.458c.263-.263.66-.34 1.035-.185.351.144.578.478.578.852v2.063h8v-2.063c0-.373.227-.707.604-.862.349-.146.745-.068 1.009.196l1.459 1.457 5.656-5.656-1.458-1.459c-.264-.264-.34-.659-.185-1.035.144-.351.478-.578.852-.578z" fill="#f0bc5e"/></g><path d="m60 21h3v-1c0-2.757-2.243-5-5-5h-1.292c-1.65 0-3.195.57-4.418 1.567-2.419-9.128-10.66-15.567-20.29-15.567s-17.871 6.439-20.29 15.567c-1.223-.997-2.768-1.567-4.418-1.567h-1.292c-2.757 0-5 2.243-5 5v1h3c.552 0 1 .448 1 1v2c0 .552-.448 1-1 1h-3v1c0 2.757 2.243 5 5 5h1.292c1.821 0 3.505-.703 4.778-1.9 1.722 5.382 5.23 9.026 8.113 12.009 2.149 2.226 4.028 4.182 4.65 6.274-.502.364-.833.951-.833 1.617v6c0 1.103.897 2 2 2 0 3.309 2.691 6 6 6s6-2.691 6-6c1.103 0 2-.897 2-2v-6c0-.666-.331-1.253-.833-1.617.622-2.092 2.501-4.048 4.65-6.274 2.883-2.983 6.391-6.627 8.113-12.009 1.273 1.197 2.957 1.9 4.778 1.9h1.292c2.757 0 5-2.243 5-5v-1h-3c-.552 0-1-.448-1-1v-2c0-.552.448-1 1-1zm-52.708 8h-1.292c-1.304 0-2.416-.836-2.829-2h.829c1.654 0 3-1.346 3-3v-2c0-1.654-1.346-3-3-3h-.829c.413-1.164 1.525-2 2.829-2h1.292c1.905 0 3.619 1.059 4.472 2.764l.618 1.236h25.268c.223.627.35 1.298.35 2s-.128 1.373-.35 2h-25.268l-.618 1.236c-.853 1.705-2.567 2.764-4.472 2.764zm20.243-10c1.124-1.248 2.746-2 4.465-2 1.771 0 3.36.776 4.46 2zm8.925 8c-1.099 1.224-2.688 2-4.46 2-1.719 0-3.341-.752-4.465-2zm1.54 22 .001 2h-12.001v-2zm-6 12c-2.206 0-4-1.794-4-4h8c0 2.206-1.794 4-4 4zm-6-6v-2h12.001l.001 2zm34-28h.829c-.413 1.164-1.525 2-2.829 2h-1.292c-1.905 0-3.619-1.059-4.472-2.764l-.618-1.236h-5.618v2h4.382l.032.064c-1.363 5.723-4.898 9.409-8.035 12.657-2.22 2.299-4.172 4.339-5.004 6.721l2.609-11.626-.912.912-1.096-1.095-2.776 12.367h-2.2v-10h-2v10h-2.2l-2.775-12.368-1.096 1.095-.912-.912 2.609 11.626c-.833-2.382-2.784-4.422-5.004-6.721-3.137-3.248-6.671-6.934-8.035-12.657l.031-.063h11.477c1.423 2.442 4.055 4 6.905 4 4.411 0 8-3.589 8-8s-3.589-8-8-8c-2.849 0-5.482 1.558-6.905 4h-11.477l-.065-.131c-.065-.13-.147-.246-.219-.37 1.674-8.999 9.464-15.499 18.666-15.499s16.992 6.5 18.666 15.499c-.072.124-.154.241-.219.37l-.065.131h-4.382v2h5.618l.618-1.236c.853-1.705 2.567-2.764 4.472-2.764h1.292c1.304 0 2.416.836 2.829 2h-.829c-1.654 0-3 1.346-3 3v2c0 1.654 1.346 3 3 3z"/></g></svg>